<svg id="Layer_1" data-name="Layer 1" xmlns="http://www.w3.org/2000/svg" viewBox="0 0 367.62 84.53"><defs><style>.cls-1{fill:#dc423f;}.cls-2,.cls-3{fill:#303030;}.cls-3{font-size:70.5px;font-family:SFProDisplay-Ultralight, SF Pro Display;}.cls-4{letter-spacing:-0.03em;}.cls-5{letter-spacing:0em;}</style></defs><title>Music Lab Logo 2017</title><polygon class="cls-1" points="23.05 53.75 48.43 48.77 48.43 83.05 15.99 83.05 13.11 65.91 23.05 53.75"/><path class="cls-2" d="M70.33,65.28,49,28.25V12.51a6.71,6.71,0,0,0,3.36-5.85A6.55,6.55,0,0,0,45.91,0h-19a6.55,6.55,0,0,0-6.41,6.66,6.71,6.71,0,0,0,3.36,5.85V28.25l-21.38,37C-.39,70.23-.78,75,1.38,78.74s6.49,5.79,12.19,5.79H59.22c5.71,0,10-2.05,12.19-5.79S73.19,70.23,70.33,65.28Zm-23.9-8V69.63a4.89,4.89,0,1,1-4.89-4.89,4.81,4.81,0,0,1,2.93,1V59.33L30.14,62.89v13h0a1.11,1.11,0,0,1,0,.33,4.89,4.89,0,1,1-4.89-4.89,4.81,4.81,0,0,1,2.93,1V56.82a1.49,1.49,0,0,1,1.37-1.5L44.8,51.58h.1a1.5,1.5,0,0,1,1.53,1.5Zm4.81-9.61a14.45,14.45,0,0,0-8.1-2.28A14.47,14.47,0,0,0,35,47.67a10.06,10.06,0,0,1-5.85,1.68,10.06,10.06,0,0,1-5.85-1.68A15.89,15.89,0,0,0,19,45.81l5.36-9.28H34.77a2.28,2.28,0,0,0,0-4.57H27l1.44-2.49V27.4h6.36a2.28,2.28,0,0,0,0-4.57H28.4V18.26h6.36a2.28,2.28,0,0,0,0-4.57H28.4V9.08l-1.84-.37A2,2,0,0,1,25,6.66a2,2,0,0,1,1.84-2.09h19a2,2,0,0,1,1.84,2.09,2,2,0,0,1-1.52,2.05l-1.84.37V29.47L55.83,49.29A10.16,10.16,0,0,1,51.25,47.67Z"/><text class="cls-3" transform="translate(85.75 62)">Music <tspan class="cls-4" x="178.28" y="0">L</tspan><tspan class="cls-5" x="211.09" y="0">ab</tspan></text></svg>